<?xml version="1.0" encoding="UTF-8" standalone="no"?>
<!-- Created with Inkscape (http://www.inkscape.org/) -->

<svg
   width="168.94551mm"
   height="65.343796mm"
   viewBox="0 0 168.94551 65.343796"
   version="1.1"
   id="svg5"
   xmlns="http://www.w3.org/2000/svg"
   xmlns:svg="http://www.w3.org/2000/svg">
  <defs
     id="defs2" />
  <g
     id="layer2"
     style="display:none"
     transform="translate(-20.536335,-95.363774)">
    <rect
       style="fill:#0000ff;stroke:#000000;stroke-width:0;stroke-linecap:round;stroke-linejoin:round"
       id="rect1213"
       width="195.69473"
       height="183.72107"
       x="6.3610144"
       y="47.894699"
       ry="0.006697583" />
  </g>
  <g
     id="layer1"
     transform="translate(-20.536335,-95.363774)">
    <path
       style="fill:#26ed83;stroke-width:0.0403835;fill-opacity:1"
       d="m 42.792157,160.66051 c -0.937373,-0.26321 -1.576245,-0.78852 -1.962306,-1.61351 -0.183908,-0.39301 -0.279937,-0.79541 -0.306905,-1.28607 -0.02786,-0.50699 0.0251,-0.90002 0.191959,-1.42438 0.06361,-0.1999 0.327278,-1.29934 0.585927,-2.4432 0.48946,-2.16461 0.625971,-2.95643 0.707284,-4.10252 0.03918,-0.55231 0.03507,-0.66569 -0.04398,-1.2115 -0.128719,-0.88879 -0.17359,-1.04635 -0.562483,-1.9752 -0.195285,-0.46643 -0.443658,-1.07521 -0.551939,-1.35285 -0.263852,-0.67653 -1.074888,-2.15852 -1.547024,-2.82685 -0.209487,-0.29654 -2.057908,-2.54732 -3.316591,-4.03853 -1.282968,-1.51999 -2.213036,-2.85725 -2.746366,-3.94872 -0.17674,-0.36171 -0.321346,-0.66679 -0.321346,-0.67795 0,-0.0112 -0.0988,-0.2695 -0.21956,-0.57406 -0.220272,-0.55554 -0.425718,-1.30008 -0.587383,-2.1287 -0.04767,-0.24432 -0.09573,-0.47574 -0.106799,-0.51427 -0.01589,-0.0553 -0.121108,0.0183 -0.499909,0.34965 -0.576098,0.50396 -1.31981,1.07807 -1.897797,1.46502 -1.048586,0.702 -3.46782,2.12931 -4.397465,2.59444 -0.935928,0.46828 -0.9876,0.48861 -1.706347,0.67134 -0.639756,0.16266 -0.778088,0.18538 -1.010792,0.16607 -0.567277,-0.0471 -1.032672,-0.25065 -1.51639,-0.66333 -0.498749,-0.42551 -0.582294,-1.07754 -0.203525,-1.58843 0.07284,-0.0983 0.175814,-0.2604 0.228842,-0.36035 0.157682,-0.29721 0.267996,-0.42349 0.695616,-0.79628 0.576383,-0.50249 0.706153,-0.5926 1.557684,-1.08165 0.947177,-0.54398 3.576795,-2.20081 4.090901,-2.57754 0.683776,-0.50105 2.117827,-1.73594 2.523969,-2.17343 0.285445,-0.30747 0.736358,-0.95734 1.018581,-1.46799 l 0.200868,-0.36346 0.02458,-0.76728 c 0.02392,-0.74663 0.147346,-1.80519 0.289578,-2.48359 0.100861,-0.48107 0.341857,-1.27582 0.526563,-1.73649 0.09351,-0.23321 0.229079,-0.62392 0.30127,-0.86825 0.245808,-0.8319 0.549138,-1.3072 1.027702,-1.61035 0.963737,-0.61048 2.062516,-0.48885 2.871427,0.31784 0.548184,0.54668 0.745967,1.06351 0.745967,1.94929 0,0.42682 -0.02622,0.66535 -0.141426,1.28645 -0.30125,1.62412 -0.568424,2.69254 -0.917377,3.66853 -0.186026,0.5203 -0.199496,0.58264 -0.174523,0.80767 0.08062,0.72648 0.8687,4.75206 1.107115,5.65524 0.09077,0.34385 0.337411,0.93535 0.644362,1.5453 0.281856,0.56008 1.158187,1.7512 2.101595,2.85651 1.152507,1.35029 3.7498,4.43589 3.892164,4.62391 0.467866,0.61791 1.107426,1.6054 1.399567,2.16093 0.186764,0.35515 0.461732,0.84562 0.611042,1.08994 0.149309,0.24432 0.313024,0.526 0.363811,0.62595 0.213389,0.41995 0.826024,1.87637 0.993746,2.36243 0.199805,0.57904 0.522258,1.88706 0.569343,2.30952 l 0.0301,0.27007 0.477761,-0.55661 c 0.262769,-0.30614 1.336033,-1.52259 2.385032,-2.70322 2.028474,-2.28302 1.868089,-2.11693 9.780415,-10.12825 l 2.339073,-2.36834 4.199885,-3.79468 c 3.670804,-3.31665 4.988417,-4.47261 10.459328,-9.17617 8.403529,-7.22485 8.768859,-7.51778 16.415899,-13.16249 5.4981,-4.05847 5.78376,-4.26311 7.5517,-5.40983 1.70656,-1.10689 2.05898,-1.31517 4.94698,-2.923633 2.78938,-1.55354 3.25298,-1.79769 4.50277,-2.37139 1.89063,-0.86786 1.76424,-0.82114 2.22109,-0.82102 0.30036,8e-5 0.43383,0.0196 0.61483,0.09 0.50421,0.19613 0.93524,0.64195 1.10649,1.14444 0.14926,0.43798 0.0776,1.03056 -0.17956,1.48461 -0.22742,0.40156 -2.37382,2.484373 -5.05079,4.901173 -3.10814,2.80607 -3.04569,2.75614 -11.6644,9.32599 -3.12656,2.3833 -6.61145,5.0691 -7.7442,5.96844 -2.61387,2.07525 -13.735182,11.47512 -16.718776,14.1309 -1.110547,0.98853 -2.982322,2.65192 -4.159501,3.69643 -1.900662,1.68645 -2.716878,2.45545 -7.289223,6.86758 -4.987274,4.81253 -6.014772,5.83519 -9.997514,9.95042 -1.507099,1.55724 -1.91651,2.00883 -3.069146,3.38533 -0.731533,0.87362 -1.430009,1.72827 -1.55217,1.89924 -0.769955,1.07753 -1.455312,1.82573 -1.926057,2.10264 -0.514552,0.30269 -0.796695,0.37947 -1.445965,0.39351 -0.395914,0.009 -0.625889,-0.005 -0.767287,-0.0445 z m 54.860993,-3.81903 c -0.64599,-0.0309 -1.97104,-0.19157 -2.99358,-0.36298 -1.91227,-0.32058 -3.62673,-0.76208 -5.20427,-1.34019 -0.68451,-0.25085 -2.49425,-1.11463 -3.09263,-1.4761 -0.8743,-0.52816 -2.02705,-1.61878 -2.448946,-2.31697 -0.280576,-0.46433 -0.572513,-1.11452 -0.674945,-1.50323 -0.155247,-0.58911 -0.176581,-0.81928 -0.153829,-1.65963 0.02194,-0.81047 0.02207,-0.81139 0.210309,-1.49749 0.280508,-1.02238 0.647295,-1.71618 1.718611,-3.25087 1.35976,-1.94789 3.92049,-4.37223 6.54137,-6.19297 0.56638,-0.39347 1.24337,-0.8713 1.50442,-1.06184 0.87682,-0.64 4.20576,-2.38156 5.76461,-3.0158 0.4109,-0.16718 0.85447,-0.35177 0.9857,-0.4102 0.13123,-0.0584 0.422,-0.15012 0.64614,-0.20375 1.89609,-0.45375 3.54879,-0.10221 4.74007,1.00823 0.6349,0.59182 1.05909,1.22545 1.30253,1.94564 0.17156,0.50752 0.21497,0.87919 0.16459,1.40911 -0.0832,0.87523 -0.30628,1.48136 -0.77268,2.09959 -0.13405,0.17768 -0.30569,0.4321 -0.38143,0.56537 -0.19879,0.34981 -0.99114,1.27074 -1.47954,1.71961 -1.09218,1.00383 -2.40262,1.90544 -3.75075,2.5806 -0.63596,0.31848 -2.86892,1.33022 -4.11661,1.86518 -1.18541,0.50826 -1.87662,0.75453 -4.54647,1.61988 -2.46116,0.79769 -2.72865,0.87056 -3.4326,0.93512 -0.60044,0.0551 -0.58946,0.0472 -0.49707,0.35557 0.0537,0.17914 0.40162,0.58518 0.73092,0.85296 0.40155,0.32653 1.78238,1.02495 2.67376,1.35238 1.97321,0.72483 3.7678,1.15654 5.89599,1.41837 0.55528,0.0683 1.23674,0.15358 1.51438,0.18947 0.84461,0.10919 2.11102,0.11662 2.97651,0.0174 0.87047,-0.0997 1.66039,-0.24785 2.07499,-0.38906 0.16462,-0.0561 0.76165,-0.2212 1.32673,-0.36695 0.56508,-0.14575 1.49188,-0.42149 2.05956,-0.61277 0.8961,-0.30193 1.0694,-0.34802 1.31483,-0.34968 0.15547,-0.001 0.34033,0.011 0.41078,0.0267 l 0.1281,0.0286 -0.0986,-0.35171 c -0.20814,-0.74238 -0.29897,-1.42997 -0.29882,-2.26191 4.1e-4,-1.24469 0.2392,-2.36103 0.8127,-3.79675 0.31973,-0.8004 0.40059,-0.96752 0.87313,-1.80439 0.5456,-0.96627 1.64426,-2.37996 2.63188,-3.38655 0.83697,-0.85305 2.50839,-2.29715 3.67811,-3.17787 0.52755,-0.3972 2.03878,-1.36364 3.10953,-1.98854 0.34427,-0.20092 0.76073,-0.45569 0.92546,-0.56615 0.37638,-0.25238 0.82668,-0.46386 1.3966,-0.65591 0.98939,-0.33341 1.8944,-0.20249 2.58701,0.37421 1.08129,0.90035 1.15536,2.5476 0.15934,3.54362 -0.24187,0.24187 -0.37801,0.33621 -0.78363,0.54301 -0.26999,0.13765 -0.60399,0.32849 -0.74221,0.42408 -0.13822,0.0956 -0.47847,0.30675 -0.7561,0.46922 -2.47789,1.4501 -3.25323,1.98652 -4.86622,3.36671 -1.05843,0.90567 -1.94443,1.84529 -2.67923,2.84134 -0.33132,0.44912 -0.7597,1.22776 -0.98302,1.78677 -0.25057,0.62721 -0.29262,0.76285 -0.40065,1.29227 -0.18706,0.91678 0.0225,1.95655 0.4882,2.42224 0.19861,0.19862 0.30947,0.25561 0.75417,0.38769 0.70647,0.20984 1.83434,0.17484 2.78396,-0.0864 0.28664,-0.0789 0.67564,-0.17952 0.86444,-0.2237 0.4965,-0.11618 1.79748,-0.53893 2.3546,-0.76511 0.32538,-0.1321 0.66912,-0.31707 1.07133,-0.57649 0.32572,-0.21009 1.06903,-0.62987 1.65179,-0.93284 0.58277,-0.30297 1.53683,-0.8101 2.12014,-1.12696 0.58331,-0.31686 1.12417,-0.60254 1.2019,-0.63484 0.081,-0.0337 0.27104,-0.0587 0.44507,-0.0587 0.26145,0 0.34107,0.0184 0.57201,0.13208 0.48027,0.23643 0.73812,0.65058 0.73541,1.18117 -0.002,0.49298 -0.0751,0.60727 -1.0492,1.65309 -1.0847,1.1645 -1.30254,1.38767 -2.15709,2.20979 -0.68661,0.66055 -0.74061,0.7024 -1.89803,1.47122 -0.65522,0.43523 -1.30035,0.85542 -1.43361,0.93376 -0.56441,0.33178 -1.63805,0.90186 -2.0401,1.08326 -1.55325,0.70081 -3.73079,0.99576 -5.47123,0.74109 -0.6754,-0.0988 -1.91073,-0.47456 -2.44354,-0.74321 -0.62271,-0.31399 -1.36012,-0.90237 -1.81491,-1.44812 -0.18769,-0.22523 -0.34457,-0.40951 -0.34862,-0.40951 -0.004,0 -0.0541,0.0954 -0.11126,0.21202 -0.0571,0.11661 -0.19102,0.29655 -0.29752,0.39986 -0.23566,0.22863 -1.82565,1.22303 -2.65702,1.66174 -1.23221,0.65022 -1.43823,0.7407 -2.30186,1.01092 -1.0047,0.31435 -1.41112,0.418 -2.38263,0.60764 -1.28443,0.25072 -2.77334,0.34245 -4.34122,0.26746 z m -4.54314,-13.80897 c 1.12144,-0.43546 2.47902,-1.03307 3.86674,-1.70215 1.51273,-0.72935 1.75133,-0.85494 2.4272,-1.27755 0.88635,-0.55423 1.31805,-0.93009 1.86799,-1.62634 0.22707,-0.2875 0.62148,-0.86382 0.62148,-0.90815 0,-0.0534 -0.22131,-10e-4 -1.01749,0.23987 -1.64215,0.49731 -3.02942,1.06197 -4.27479,1.73997 -0.47642,0.25936 -1.07717,0.5775 -1.33501,0.70698 -1.0346,0.51952 -2.93412,1.95627 -4.26614,3.2268 l -0.55207,0.52658 1.00798,-0.33755 c 0.55438,-0.18566 1.29873,-0.45046 1.65411,-0.58846 z m 62.27516,10.6747 c -0.53112,-0.0482 -0.66655,-0.0768 -1.15093,-0.24272 -0.85808,-0.29394 -1.27594,-0.47753 -1.80007,-0.79089 -0.58578,-0.35022 -0.72025,-0.47261 -1.43847,-1.30926 -0.67891,-0.79086 -1.00799,-1.24852 -1.79426,-2.4953 -1.09911,-1.74288 -1.31584,-2.05668 -1.9048,-2.75799 -0.86558,-1.0307 -1.46669,-1.58505 -2.71768,-2.50626 -0.74777,-0.55064 -1.36919,-1.20063 -1.70765,-1.78611 -0.16854,-0.29157 -0.35544,-0.90541 -0.38544,-1.26595 l -0.0272,-0.3271 -0.76481,0.98835 c -1.34269,1.73512 -4.53916,5.76987 -5.13577,6.48263 -0.93876,1.12152 -3.01692,2.97455 -3.7107,3.30872 -0.64314,0.30977 -1.37914,0.27857 -1.98316,-0.0841 -0.41793,-0.25092 -0.69045,-0.57209 -0.88762,-1.04606 -0.10666,-0.25641 -0.1176,-0.32584 -0.1176,-0.74709 0,-0.33807 0.0192,-0.51935 0.0706,-0.66634 0.0388,-0.11106 0.46005,-0.91065 0.93609,-1.77687 0.62837,-1.14342 0.98732,-1.74725 1.30999,-2.20375 0.24445,-0.34583 1.29407,-1.70877 2.33248,-3.02876 5.88355,-7.4789 7.63223,-9.72953 9.15985,-11.78914 1.7616,-2.37506 2.47353,-3.31764 4.04146,-5.35081 3.22284,-4.17914 3.90987,-5.12547 4.83745,-6.66328 0.52259,-0.86638 0.83551,-1.71861 0.83551,-2.27551 0,-0.3307 0.13361,-0.84115 0.384,-1.46701 0.37781,-0.94435 0.52856,-1.17135 0.96593,-1.45451 0.66405,-0.4299 1.54598,-0.42512 2.20048,0.0119 0.56797,0.37927 1.22173,1.38636 1.4355,2.21132 0.13062,0.50406 0.0424,1.34436 -0.23822,2.27017 -0.37552,1.23871 -1.24867,2.90299 -2.54081,4.84291 -2.15612,3.23703 -8.79279,12.86149 -9.40532,13.63953 -0.10928,0.13882 -0.1871,0.2524 -0.17293,0.2524 0.0142,0 0.5062,-0.21807 1.09339,-0.48461 0.58718,-0.26653 1.07609,-0.4846 1.08646,-0.4846 0.0104,0 0.56028,-0.2373 1.22204,-0.52733 2.52036,-1.10461 5.82685,-2.95584 8.20533,-4.59397 0.43069,-0.29663 1.10307,-0.75552 1.49419,-1.01975 0.39112,-0.26423 0.76163,-0.52576 0.82335,-0.58116 0.0617,-0.0554 0.23647,-0.28824 0.38832,-0.51741 0.15851,-0.2392 0.3815,-0.51205 0.52357,-0.64061 0.2428,-0.21972 1.07473,-0.70011 1.38273,-0.79845 0.72808,-0.23246 1.51266,-0.0539 2.06093,0.46907 0.42678,0.40709 0.64244,0.76135 0.86758,1.42518 0.10685,0.31505 0.1163,0.38973 0.11496,0.90863 -0.001,0.49107 -0.014,0.59987 -0.0969,0.82786 -0.1273,0.35018 -0.44785,0.91459 -0.69479,1.22339 -0.23944,0.29941 -0.93441,1.01121 -1.1049,1.13166 -0.0666,0.0471 -0.23018,0.17704 -0.36345,0.2888 -0.13326,0.11176 -0.45128,0.33876 -0.70671,0.50444 -0.25542,0.16569 -0.92781,0.61813 -1.49419,1.00545 -2.11984,1.44964 -3.63597,2.34575 -6.6027,3.9025 -1.24991,0.65587 -3.1012,1.49588 -4.36142,1.97895 -0.72071,0.27627 -1.43458,0.5861 -1.43118,0.62115 0.001,0.0138 0.19396,0.17048 0.42805,0.34817 0.66451,0.50439 1.55718,1.3757 2.29624,2.24129 0.74898,0.87721 1.0908,1.35307 1.88555,2.62492 0.91185,1.45928 1.21559,1.89074 1.89149,2.68687 0.35764,0.42126 0.72288,0.85261 0.81165,0.95855 0.0911,0.10877 0.25243,0.23818 0.37048,0.29726 0.42459,0.21248 1.26522,0.76545 1.46413,0.96311 0.25621,0.25459 0.48488,0.70981 0.54152,1.07802 0.15425,1.00283 -0.52651,1.9839 -1.52318,2.19509 -0.31859,0.0675 -0.39668,0.0671 -1.19841,-0.006 z m 17.66398,-0.27685 c -0.38869,-0.0296 -0.9793,-0.0748 -1.31246,-0.10052 -0.83781,-0.0647 -1.53482,-0.18 -2.34998,-0.38886 -0.73591,-0.18856 -1.2437,-0.38897 -1.76532,-0.69672 -0.46526,-0.27451 -1.30801,-1.11569 -1.60475,-1.60178 -0.3922,-0.64244 -0.68294,-1.40471 -0.76445,-2.00422 -0.0688,-0.50601 -0.0688,-1.94679 4e-5,-2.33701 0.13643,-0.77368 0.7713,-2.39279 1.3045,-3.32685 0.67291,-1.17881 2.35548,-3.23096 3.44837,-4.20579 1.15705,-1.03208 2.41745,-1.90946 4.29226,-2.98791 1.48287,-0.85299 3.22647,-1.44603 5.092,-1.7319 0.82907,-0.12705 2.15625,-0.18035 2.64512,-0.10625 0.46524,0.0705 1.72838,0.38001 2.05914,0.50451 0.54859,0.2065 1.05579,0.57647 1.35327,0.98713 0.14704,0.20298 0.22998,0.27398 0.43454,0.37194 0.3481,0.16672 0.7598,0.50816 1.31924,1.09413 0.98611,1.03287 1.74152,2.26879 2.05732,3.36599 0.20866,0.72493 0.23922,1.01726 0.21824,2.08781 -0.0173,0.88389 -0.0259,0.97001 -0.14795,1.47694 -0.14296,0.59406 -0.4067,1.33898 -0.63456,1.79231 -0.46974,0.93456 -1.39266,2.14647 -2.24915,2.95339 -0.28361,0.2672 -1.28832,1.11851 -1.6842,1.42706 -0.6683,0.52087 -2.09346,1.36234 -3.25087,1.91944 -1.32286,0.63675 -2.90339,1.14026 -4.07874,1.29939 -0.26653,0.0361 -0.75719,0.10268 -1.09035,0.14799 -0.7861,0.1069 -2.3084,0.13455 -3.29126,0.0598 z m 2.74608,-5.71199 c 0.92451,-0.13296 1.18617,-0.19676 1.92185,-0.46856 1.14173,-0.42183 1.68381,-0.71831 2.94353,-1.60995 1.00226,-0.7094 1.613,-1.32669 2.18553,-2.20897 0.39924,-0.61523 0.51155,-0.8782 0.532,-1.24566 0.0301,-0.5416 -0.1227,-1.32905 -0.34548,-1.77997 -0.093,-0.18817 -0.12517,-0.22068 -0.2107,-0.21276 -0.0555,0.005 -0.58253,0.0276 -1.17112,0.0499 -1.49155,0.0566 -2.0883,0.14034 -2.948,0.41381 -0.63272,0.20127 -0.92857,0.3324 -1.76044,0.78031 -1.02565,0.55223 -1.42033,0.80256 -2.25771,1.43196 -1.05908,0.79602 -2.00584,1.78162 -2.79319,2.90774 -0.41515,0.5938 -0.58004,0.89516 -0.75529,1.38051 l -0.14123,0.39112 0.28933,0.0658 c 0.99028,0.22524 3.29999,0.27884 4.51092,0.10468 z"
       id="path854" />
  </g>
</svg>
